<?xml version="1.0" encoding="utf-8"?>
<!-- Generator: Adobe Illustrator 25.2.3, SVG Export Plug-In . SVG Version: 6.00 Build 0)  -->
<svg version="1.1" id="Layer_1" xmlns="http://www.w3.org/2000/svg" xmlns:xlink="http://www.w3.org/1999/xlink" x="0px" y="0px"
	 viewBox="0 0 400 96" style="enable-background:new 0 0 400 96;" xml:space="preserve">
<style type="text/css">
	.st0{fill-rule:evenodd;clip-rule:evenodd;fill:#fff;}
</style>
<g>
	<path class="st0" d="M113.2,95.1h17.4V0.5h-17.4V95.1z M153.8,15.8h76.7c-0.6,3.3-1.9,6.2-4,8.7c-2.1,2.6-5,4.6-8.3,5.9l-47,18.1
		c-5.4,2.1-9.6,4.4-12.8,7.3c-3.2,2.8-5.5,6-7.2,9.8c-1.5,3.5-2.4,7.5-3,12.5c-0.5,4.9-0.6,10.4-0.6,15.6v1.3h100.5V79.8h-82.9
		c0.3-4.4,1.2-7.5,2.6-9.9c1.5-2.6,3.9-4.4,7.3-5.7L222.8,46c5.2-2,9.5-4.4,13-7.4c3.3-2.8,5.9-6.1,7.8-10c1.8-3.5,3-7.6,3.7-12.3
		c0.6-4.1,1-8.7,1-14.5V0.5h-94.4L153.8,15.8L153.8,15.8z M265.3,95.1h17.4V0.5h-17.4V95.1z M317,28.3c0-3.1,1.4-6.3,3.7-8.7
		c2.4-2.4,5.4-3.8,8.4-3.8h41.4c3.1,0,6.1,1.4,8.5,3.8c2.3,2.4,3.7,5.6,3.7,8.7v39c0,3.1-1.3,6.3-3.7,8.7c-2.3,2.4-5.4,3.8-8.5,3.8
		h-41.4c-3.1,0-6.1-1.4-8.5-3.8c-2.3-2.4-3.7-5.6-3.7-8.7L317,28.3L317,28.3z M391.4,8.4c-5.5-5.1-12.9-7.9-20.8-7.9h-41.4
		c-16.2,0-29.4,12.5-29.4,27.8v39c0,15.3,13.2,27.8,29.4,27.8h41.4c7.8,0,15.2-2.9,20.7-8c5.6-5.2,8.7-12.1,8.7-19.5V28.3
		C400,20.6,396.9,13.6,391.4,8.4z M79,36.2c0,0.3-0.3,1.5-0.7,2.1l-22,38.3c-1.3,2.1-4.4,3.5-7.9,3.5c-3.5,0-6.6-1.4-7.9-3.5
		L17.7,37.6c-0.1-0.3-0.4-1.2-0.4-1.4V0.7H0v34.2c0,4.8,2.3,9.6,4.2,12.7l22.6,37.8c3.9,6.6,12.2,10.6,21.5,10.6
		c4.3,0,8.6-0.9,12.2-2.6c3.9-1.8,7.1-4.6,9.1-8l21.9-37c2.4-4.2,4.6-8.3,4.6-13.5V0.7H79V36.2z"/>
</g>
</svg>
